# xmcd
#
# Track frame offsets: 
#        150
#        12929
#        23737
#        35118
#        46524
#        59592
#        77283
#        91009
#        110003
#        124311
#        136495
#        148849
#        160796
#        176181
#
# Disc length: 2569 seconds
#
# Revision: 0
# Processed by: cddbd v1.5.2PL0 Copyright (c) Steve Scherf et al.
# Submitted via: ExactAudioCopy v1.0b1
#
DISCID=b80a070e
DTITLE=Willie Nelson - Remember Me, Vol. 1
DYEAR=2011
DGENRE=Country
TTITLE0=Remember Me
TTITLE1=Sixteen Tons
TTITLE2=Why Baby, Why
TTITLE3=Today I Started Loving You Again
TTITLE4=I'm Movin' On
TTITLE5=That Just About Does It
TTITLE6=This Old House
TTITLE7=Sunday Mornin' Comin' Down
TTITLE8=Smoke! Smoke! Smoke! (That Cigarette)
TTITLE9=Slowly
TTITLE10=Satisfied Mind
TTITLE11=Roly Poly
TTITLE12=Release Me
TTITLE13=Ramblin' Fever
EXTD=
EXTT0=
EXTT1=
EXTT2=
EXTT3=
EXTT4=
EXTT5=
EXTT6=
EXTT7=
EXTT8=
EXTT9=
EXTT10=
EXTT11=
EXTT12=
EXTT13=
PLAYORDER=
